<svg xmlns="http://www.w3.org/2000/svg" viewBox="0 0 256 256" role="img" aria-labelledby="title desc">
  <title id="title">Erasmus Proposal Coach icon</title>
  <desc id="desc">A colorful Erasmus-inspired app icon with a star ring, speech bubble, and document motif.</desc>
  <defs>
    <linearGradient id="bg" x1="0%" y1="0%" x2="100%" y2="100%">
      <stop offset="0%" stop-color="#0f766e"/>
      <stop offset="48%" stop-color="#1697a6"/>
      <stop offset="100%" stop-color="#f08a24"/>
    </linearGradient>
    <linearGradient id="paper" x1="0%" y1="0%" x2="100%" y2="100%">
      <stop offset="0%" stop-color="#fffaf0"/>
      <stop offset="100%" stop-color="#f4efe2"/>
    </linearGradient>
    <linearGradient id="accent" x1="0%" y1="0%" x2="100%" y2="100%">
      <stop offset="0%" stop-color="#ffdf5d"/>
      <stop offset="100%" stop-color="#ffc145"/>
    </linearGradient>
    <filter id="shadow" x="-20%" y="-20%" width="140%" height="140%">
      <feDropShadow dx="0" dy="10" stdDeviation="12" flood-color="#12333b" flood-opacity="0.22"/>
    </filter>
  </defs>

  <rect width="256" height="256" rx="56" fill="url(#bg)"/>

  <circle cx="128" cy="128" r="88" fill="none" stroke="rgba(255,255,255,0.24)" stroke-width="8"/>

  <g fill="#ffde59">
    <path d="M128 22l4.9 10.7 11.6 1.2-8.6 7.7 2.4 11.4-10.3-5.8-10.3 5.8 2.4-11.4-8.6-7.7 11.6-1.2z"/>
    <path d="M194 48l3.5 7.6 8.2.8-6.1 5.4 1.7 8.1-7.3-4.1-7.3 4.1 1.7-8.1-6.1-5.4 8.2-.8z"/>
    <path d="M226 111l3.4 7.4 8 .8-6 5.3 1.7 7.9-7.1-4-7.1 4 1.7-7.9-6-5.3 8-.8z"/>
    <path d="M211 182l3.4 7.4 8 .8-6 5.3 1.7 7.9-7.1-4-7.1 4 1.7-7.9-6-5.3 8-.8z"/>
    <path d="M151 217l4 8.7 9.4 1-7 6.2 2 9.2-8.4-4.8-8.4 4.8 2-9.2-7-6.2 9.4-1z"/>
    <path d="M82 209l3.7 8.1 8.8.9-6.5 5.8 1.9 8.7-7.8-4.4-7.8 4.4 1.8-8.7-6.5-5.8 8.8-.9z"/>
    <path d="M34 160l3.4 7.4 8 .8-6 5.3 1.7 7.9-7.1-4-7.1 4 1.7-7.9-6-5.3 8-.8z"/>
    <path d="M28 91l3.4 7.4 8 .8-6 5.3 1.7 7.9-7.1-4-7.1 4 1.7-7.9-6-5.3 8-.8z"/>
    <path d="M69 38l3.7 8.1 8.8.9-6.5 5.8 1.8 8.7-7.8-4.4-7.8 4.4 1.9-8.7-6.5-5.8 8.8-.9z"/>
  </g>

  <g filter="url(#shadow)">
    <path d="M74 68h108c18.8 0 34 15.2 34 34v47c0 18.8-15.2 34-34 34h-49l-30 27c-4.4 4-11.5.8-11.5-5.1V183H74c-18.8 0-34-15.2-34-34v-47c0-18.8 15.2-34 34-34z" fill="url(#paper)"/>
    <path d="M122 86h43c13.3 0 24 10.7 24 24v34c0 13.3-10.7 24-24 24h-43l-18 16.2V168H92c-13.3 0-24-10.7-24-24v-34c0-13.3 10.7-24 24-24z" fill="#ffffff" opacity="0.95"/>
  </g>

  <rect x="89" y="103" width="79" height="10" rx="5" fill="#1697a6"/>
  <rect x="89" y="121" width="92" height="10" rx="5" fill="#34b3c1"/>
  <rect x="89" y="139" width="58" height="10" rx="5" fill="#f08a24"/>

  <circle cx="74" cy="180" r="24" fill="url(#accent)"/>
  <path d="M66 181c0-7.7 5.5-13 13.2-13 7.4 0 12.8 5.1 12.8 11.8 0 8.7-7.8 13.2-15.2 17.8-2.8 1.8-5.7 3.7-8.1 5.8h23.4v8.8H56.2c.3-12.4 7.1-17 14.1-21.7 5.9-4 11.6-7.5 11.6-12.5 0-2.4-1.9-4.4-5-4.4-3.4 0-5.5 2.4-5.7 7.4z" fill="#124f54"/>

  <path d="M170 52c8.8 0 16 7.2 16 16v8h-12v-4c0-4.4-3.6-8-8-8h-14V52z" fill="#ffffff" opacity="0.75"/>
</svg>
